# xmcd CD database file
# Copyright (C) 1993-1998 Ti Kan
#
# Track frame offsets:
#  150
#  9945
#  18237
#  24382
#  30480
#  36115
#  48665
#  55837
#  66890
#  79235
#  87312
#  100517
#  108295
#  119805
#  131437
#  142855
#  148305
#  163585
#  169872
#  175217
#
# Disc length: 2394 seconds
#
# Revision: 1
# Processed by: cddbd v1.4b41PL1 Copyright (c) Steve Scherf et al.
# Submitted via: KiC 2.1 - (C) 1996-1998 Alwin Hoogerdijk
#
DISCID=05095814
DTITLE=Red Smiley and the Bluegrass Cut-Ups - 20 Old-Time Favorites
DYEAR=1900
DGENRE=
TTITLE0=Dirty Dishes
TTITLE1=I Only Want a Buddy
TTITLE2=Dear Old Dixie
TTITLE3=Let the Rest of the World Go By
TTITLE4=Rock About My Sarah Jane
TTITLE5=Old Pal of Yesterday
TTITLE6=When Our Lord Shall Come Again
TTITLE7=The Dying Soldier
TTITLE8=Garden in the Sky
TTITLE9=Little Red School House
TTITLE10=I Never See Maggie Alone
TTITLE11=Red Wing
TTITLE12=Philadelphia Lawyer
TTITLE13=Prayer Bells of Heaven
TTITLE14=Take Your Blues and Go
TTITLE15=Coney Isle
TTITLE16=Just Tell Them That You Saw Me
TTITLE17=The Old Gospel Ship
TTITLE18=My Farm in Louisiana
TTITLE19=Bring It On Down to My House
EXTD=
EXTT0=
EXTT1=
EXTT2=
EXTT3=
EXTT4=
EXTT5=
EXTT6=
EXTT7=
EXTT8=
EXTT9=
EXTT10=
EXTT11=
EXTT12=
EXTT13=
EXTT14=
EXTT15=
EXTT16=
EXTT17=
EXTT18=
EXTT19=
PLAYORDER=
